<svg id="è¯logo" xmlns="http://www.w3.org/2000/svg" width="40.117" height="40.117" viewBox="0 0 40.117 40.117">
  <path id="Path_736" data-name="Path 736" d="M85.557,146.09a1.25,1.25,0,0,0-.261-1.246c-.215-.138-.6-.677-1.092-.246s-.646.8-.953.923a6.844,6.844,0,0,0-.707.354A.769.769,0,0,0,82,146.9a7.281,7.281,0,0,0,1.691,1.938c.415.277,1.153-.169,1.307-.723A12.251,12.251,0,0,1,85.557,146.09Z" transform="translate(-70.211 -122.654)"/>
  <path id="Path_737" data-name="Path 737" d="M70.044,224.3a30.024,30.024,0,0,0-3.244,2.937,20.014,20.014,0,0,0,2.4,1.292,16.274,16.274,0,0,0,2.03-2.66C71.8,224.674,70.659,223.951,70.044,224.3Z" transform="translate(-57.39 -190.166)"/>
  <path id="Path_738" data-name="Path 738" d="M33.989,179.636c-.769-.661-.784-.846-1.522-.415s-.707.246-.892.415-2.4,2.337-2.8,2.722l-.876.815a20.158,20.158,0,0,0,1.322,1.738c.6-.631,1.338-1.353,1.753-1.738a8.71,8.71,0,0,1,1.707-1.445,2.29,2.29,0,0,0,1.092-.6C34.343,180.667,34.758,180.313,33.989,179.636Z" transform="translate(-24.471 -151.895)"/>
  <path id="Path_739" data-name="Path 739" d="M17.836,155.713c-.415.323-3.2,2.891-3.783,3.4l-.154.123a19.964,19.964,0,0,0,1.03,2.291c.277-.323.538-.63.738-.83.446-.431,2.291-2.23,2.983-2.783s.846-.923.554-1.492S18.251,155.39,17.836,155.713Z" transform="translate(-12.624 -132.109)"/>
  <path id="Path_740" data-name="Path 740" d="M139.851,78.461c.077-.338-.354-.892-.723-.661s-1.03.984-1.661,1.538-1.276,1.076-1.276,1.076a12.268,12.268,0,0,0-1.138,1.553c-.215.338-.231.569.123.723s1.753-.061,2.6.492,1.322.661,1.63.477.215-.692.061-1.2a7.459,7.459,0,0,1,.231-2.645A7.768,7.768,0,0,0,139.851,78.461Z" transform="translate(-115.018 -66.22)"/>
  <path id="Path_741" data-name="Path 741" d="M49.4,196.8a1.312,1.312,0,0,0-1.476-1.061c-.6.154-1.076.984-1.076.984s-1.384,1.261-2.183,1.953L43,200.166a20.2,20.2,0,0,0,1.691,1.538,19.314,19.314,0,0,1,1.461-1.584c.4-.354,1.784-1.707,2.153-1.922S49.581,197.552,49.4,196.8Z" transform="translate(-37.249 -166.044)"/>
  <path id="Path_742" data-name="Path 742" d="M206.94,30.561c-.261.231-1.153.969-1.261,1.107s-.6.477.246.984a4.294,4.294,0,0,0,2.4.63,7.749,7.749,0,0,1,2.26.507,20.188,20.188,0,0,0-3.49-3.491.784.784,0,0,1-.154.261Z" transform="translate(-174.711 -26.071)"/>
  <path id="Path_743" data-name="Path 743" d="M8.737,23.682c1.876-1.63,1.8-1.707,3-2.337s1.753-.108,2.552.492,1.015.461,1.461.015.215-.969.292-1.676.077-2.66.215-3.614.015-1.353.846-2.091,1.891-.584,3.091-.523a9.459,9.459,0,0,1,3.137,1,6.567,6.567,0,0,0,1.584.754,1.027,1.027,0,0,0,1.015-.692c.062-.231-.077-1.353,0-1.753s.062-2.368.077-2.706a14.546,14.546,0,0,1,.738-4.706c.384-1.107.507-1.322.984-1.307s2.076-.154,3.506-.108a27.532,27.532,0,0,1,3.537.554A20.085,20.085,0,0,0,5.861,26.127C7.276,24.959,8.6,23.805,8.737,23.682Z" transform="translate(-5.6 -2.8)"/>
  <path id="Path_744" data-name="Path 744" d="M180.861,61.274a.564.564,0,0,0,.907.138c.4-.338,1.707-1.63,2.014-1.861s.661-.523.354-.861a6.49,6.49,0,0,0-1.707-1.276c-.308-.046-.63-.246-.923.062s-1.107,1.015-1.107,1.015a1.949,1.949,0,0,0-.384,1.261A4.357,4.357,0,0,0,180.861,61.274Z" transform="translate(-153.184 -48.926)"/>
  <path id="Path_745" data-name="Path 745" d="M123.672,72.534a2.713,2.713,0,0,1-1.645-.769,8.913,8.913,0,0,1-1.338-2.107c-.369-.723-1.353-1.445-1.538-1.938s.246-.354.753-.338l.677-.169c.323-.108,1.215-.461,1.768-.723a6.61,6.61,0,0,0,1.538-.892l.707-.554a20.021,20.021,0,0,0-1.445-2.645h0c-.246.4-1.814,1.03-2.06,1.2a18.407,18.407,0,0,1-1.415,1.184,9.764,9.764,0,0,1-1.614.846,27.2,27.2,0,0,0-2.537,2.491c-.369.354-.876.769-1.169,1.107s-.323.784-.923,1.246c-.169.138-.277.369-.431.492a6.679,6.679,0,0,0-.646.431c-.215.2-.8.077-.969.231a1.066,1.066,0,0,0-.4,1.123c0,.338-.523.6-.615.815s-.231.754-.031,1,.554.907,1.076,1.138a9,9,0,0,1,1.891,1.492c.646.6.707.907.538,1.938a1.649,1.649,0,0,1-2.168,1.107c-.846-.231-1.107-1.261-1.215-2.122a14.744,14.744,0,0,0-.861-2.845.729.729,0,0,0-1.153-.369,27.961,27.961,0,0,0-2.983,2.876,1.446,1.446,0,0,0-.338,1.676c.123.446.707.815.984,1.076a6.892,6.892,0,0,0,1.922.815c.492.123,1.092.308,1.138.723a3.806,3.806,0,0,1-.83,2.384c-.646.692-2.076.431-2.814-.092s-.2-1.307-.092-1.753a1.515,1.515,0,0,0-.215-.969,2.547,2.547,0,0,0-.707-1.784c-.369-.415-.615-.2-.892.031a7.19,7.19,0,0,0-1.43,2.168c-.061.477,1.2,2.153,1.2,2.153,1.8,3.045.308,4.659-1,6.474-.431.6-.953,1.276-1.492,1.938a20.082,20.082,0,0,0,25.217-22.482C125.533,71.75,124.318,72.58,123.672,72.534Zm-5.351,4.444c-1.368.554-2.03-.723-2.353-1.369s-1.122-1.707-1.384-2.214a3.968,3.968,0,0,1,0-2.122c.123-.646.477-.461.738-.323a12.718,12.718,0,0,1,1.322.461,8.549,8.549,0,0,1,2.722,2.952C119.982,75.486,119.69,76.44,118.321,76.978Z" transform="translate(-86.246 -53.235)"/>
  <path id="Path_746" data-name="Path 746" d="M157.739,31.765a14.841,14.841,0,0,0-1.261-1.123,1.486,1.486,0,0,0-1.03-.015l-1.015.692a2.8,2.8,0,0,0-.8,1.153,2.048,2.048,0,0,0,.4,1.415c.246.4.569,1.123,1.292.723a18.278,18.278,0,0,0,2.353-2.014C157.955,32.349,158.078,32.042,157.739,31.765Z" transform="translate(-130.846 -26.275)"/>
  <path id="Path_747" data-name="Path 747" d="M114.128,121.788c.154.138.707.538,1.461-.215s1.046-1.138,1.384-1.492.846-.923.584-1.445-.846-1.292-1.707-.907a7.211,7.211,0,0,0-1.615.953l-.415.369a1.669,1.669,0,0,0-.415,1.645A1.741,1.741,0,0,0,114.128,121.788Z" transform="translate(-96.768 -99.967)"/>
  <path id="Path_748" data-name="Path 748" d="M92.517,98.748c.477-.507.261-.738-.108-1.292s-1.107-.63-2.183-.538a2.127,2.127,0,0,0-1.707,1.492,3.508,3.508,0,0,0-.246,1.138,2.992,2.992,0,0,0,1.2,1.538c.523.277.969-.062,1.476-.738A17.316,17.316,0,0,1,92.517,98.748Z" transform="translate(-75.557 -82.417)"/>
</svg>
